{
  "accessors": [
    {
      "bufferView": 1,
      "componentType": 5126,
      "count": 228,
      "max": [
        9.968000411987305,
        -16.204999923706055,
        14.958999633789063
      ],
      "min": [
        -5.4019999504089355,
        -22.072999954223633,
        9.218000411987305
      ],
      "type": "VEC3"
    },
    {
      "bufferView": 1,
      "byteOffset": 2736,
      "componentType": 5126,
      "count": 228,
      "max": [
        0.9948516488075256,
        0.9656763076782227,
        0.962332546710968
      ],
      "min": [
        -0.9924211502075195,
        -0.9656763672828674,
        -0.9621214866638184
      ],
      "type": "VEC3"
    },
    {
      "bufferView": 0,
      "componentType": 5125,
      "count": 636,
      "type": "SCALAR"
    },
    {
      "bufferView": 1,
      "byteOffset": 5472,
      "componentType": 5126,
      "count": 158,
      "max": [
        44.987998962402344,
        -2.0,
        10.5
      ],
      "min": [
        -38.42599868774414,
        -6.88100004196167,
        -53.000999450683594
      ],
      "type": "VEC3"
    },
    {
      "bufferView": 1,
      "byteOffset": 7368,
      "componentType": 5126,
      "count": 158,
      "max": [
        1.0,
        1.0,
        0.9194165468215942
      ],
      "min": [
        -1.0,
        -1.0,
        -1.0
      ],
      "type": "VEC3"
    },
    {
      "bufferView": 0,
      "byteOffset": 2544,
      "componentType": 5125,
      "count": 342,
      "type": "SCALAR"
    },
    {
      "bufferView": 1,
      "byteOffset": 9264,
      "componentType": 5126,
      "count": 3759,
      "max": [
        17.0,
        -0.0,
        15.0
      ],
      "min": [
        -11.0,
        -11.0,
        -65.14099884033203
      ],
      "type": "VEC3"
    },
    {
      "bufferView": 1,
      "byteOffset": 54372,
      "componentType": 5126,
      "count": 3759,
      "max": [
        1.0,
        1.0,
        1.0
      ],
      "min": [
        -1.0,
        -1.0,
        -1.0
      ],
      "type": "VEC3"
    },
    {
      "bufferView": 0,
      "byteOffset": 3912,
      "componentType": 5125,
      "count": 13902,
      "type": "SCALAR"
    },
    {
      "bufferView": 1,
      "byteOffset": 99480,
      "componentType": 5126,
      "count": 17429,
      "max": [
        56.566898345947266,
        14.809200286865234,
        -7.633999824523926
      ],
      "min": [
        33.66210174560547,
        -12.48449993133545,
        -23.075000762939453
      ],
      "type": "VEC3"
    },
    {
      "bufferView": 1,
      "byteOffset": 308628,
      "componentType": 5126,
      "count": 17429,
      "max": [
        1.0,
        1.0,
        1.0
      ],
      "min": [
        -1.0,
        -1.0,
        -1.0
      ],
      "type": "VEC3"
    },
    {
      "bufferView": 0,
      "byteOffset": 59520,
      "componentType": 5125,
      "count": 53574,
      "type": "SCALAR"
    },
    {
      "bufferView": 1,
      "byteOffset": 517776,
      "componentType": 5126,
      "count": 6223,
      "max": [
        16.65999984741211,
        5.767000198364258,
        27.709999084472656
      ],
      "min": [
        -12.314000129699707,
        -29.014400482177734,
        -72.45899963378906
      ],
      "type": "VEC3"
    },
    {
      "bufferView": 1,
      "byteOffset": 592452,
      "componentType": 5126,
      "count": 6223,
      "max": [
        0.9987215399742126,
        0.9820212721824646,
        0.99942946434021
      ],
      "min": [
        -0.9991345405578613,
        -0.9994325041770935,
        -0.9999455809593201
      ],
      "type": "VEC3"
    },
    {
      "bufferView": 0,
      "byteOffset": 273816,
      "componentType": 5125,
      "count": 27387,
      "type": "SCALAR"
    },
    {
      "bufferView": 1,
      "byteOffset": 667128,
      "componentType": 5126,
      "count": 12258,
      "max": [
        56.549800872802734,
        14.769000053405762,
        26.347000122070313
      ],
      "min": [
        -5.263000011444092,
        -30.875,
        -23.0
      ],
      "type": "VEC3"
    },
    {
      "bufferView": 1,
      "byteOffset": 814224,
      "componentType": 5126,
      "count": 12258,
      "max": [
        1.0,
        1.0,
        1.0
      ],
      "min": [
        -1.0,
        -1.0,
        -1.0
      ],
      "type": "VEC3"
    },
    {
      "bufferView": 0,
      "byteOffset": 383364,
      "componentType": 5125,
      "count": 37488,
      "type": "SCALAR"
    },
    {
      "bufferView": 1,
      "byteOffset": 961320,
      "componentType": 5126,
      "count": 614,
      "max": [
        13.0,
        -0.0,
        36.0
      ],
      "min": [
        -7.0,
        -20.0,
        16.0
      ],
      "type": "VEC3"
    },
    {
      "bufferView": 1,
      "byteOffset": 968688,
      "componentType": 5126,
      "count": 614,
      "max": [
        1.0,
        1.0,
        0.9999999403953552
      ],
      "min": [
        -1.0,
        -1.0,
        -0.9999999403953552
      ],
      "type": "VEC3"
    },
    {
      "bufferView": 0,
      "byteOffset": 533316,
      "componentType": 5125,
      "count": 3672,
      "type": "SCALAR"
    }
  ],
  "asset": {
    "extras": {
      "author": "jerrytyler2001 (https://sketchfab.com/jerrytyler2001)",
      "license": "CC-BY-4.0 (http://creativecommons.org/licenses/by/4.0/)",
      "source": "https://sketchfab.com/3d-models/terrific-krunk-wluff-52b29af7c0c04ddca140bf67848ba3d1",
      "title": "Terrific Krunk- Wluff"
    },
    "generator": "Sketchfab-11.89.0",
    "version": "2.0"
  },
  "bufferViews": [
    {
      "buffer": 0,
      "byteLength": 548004,
      "name": "floatBufferViews",
      "target": 34963
    },
    {
      "buffer": 0,
      "byteLength": 976056,
      "byteOffset": 548004,
      "byteStride": 12,
      "name": "floatBufferViews",
      "target": 34962
    }
  ],
  "buffers": [
    {
      "byteLength": 1524060,
      "uri": "scene.bin"
    }
  ],
  "materials": [
    {
      "doubleSided": true,
      "name": "color_11107152",
      "pbrMetallicRoughness": {
        "baseColorFactor": [
          0.662745,
          0.482353,
          0.313726,
          1.0
        ],
        "metallicFactor": 0.0
      }
    },
    {
      "doubleSided": true,
      "name": "color_14093196",
      "pbrMetallicRoughness": {
        "baseColorFactor": [
          0.843137,
          0.0431373,
          0.54902,
          1.0
        ],
        "metallicFactor": 0.0
      }
    },
    {
      "doubleSided": true,
      "name": "color_15277357",
      "pbrMetallicRoughness": {
        "baseColorFactor": [
          0.913725,
          0.113725,
          0.176471,
          1.0
        ],
        "metallicFactor": 0.0
      }
    },
    {
      "doubleSided": true,
      "name": "color_15435567",
      "pbrMetallicRoughness": {
        "baseColorFactor": [
          0.921569,
          0.529412,
          0.184314,
          1.0
        ],
        "metallicFactor": 0.0
      }
    },
    {
      "doubleSided": true,
      "name": "color_16448250",
      "pbrMetallicRoughness": {
        "baseColorFactor": [
          0.980392,
          0.980392,
          0.980392,
          1.0
        ],
        "metallicFactor": 0.0
      }
    },
    {
      "doubleSided": true,
      "name": "color_2829873",
      "pbrMetallicRoughness": {
        "baseColorFactor": [
          0.168627,
          0.180392,
          0.192157,
          1.0
        ],
        "metallicFactor": 0.0
      }
    },
    {
      "doubleSided": true,
      "name": "color_40919",
      "pbrMetallicRoughness": {
        "baseColorFactor": [
          0.0,
          0.623529,
          0.843137,
          1.0
        ],
        "metallicFactor": 0.0
      }
    }
  ],
  "meshes": [
    {
      "name": "Object_0",
      "primitives": [
        {
          "attributes": {
            "NORMAL": 1,
            "POSITION": 0
          },
          "indices": 2,
          "material": 0,
          "mode": 4
        }
      ]
    },
    {
      "name": "Object_1",
      "primitives": [
        {
          "attributes": {
            "NORMAL": 4,
            "POSITION": 3
          },
          "indices": 5,
          "material": 1,
          "mode": 4
        }
      ]
    },
    {
      "name": "Object_2",
      "primitives": [
        {
          "attributes": {
            "NORMAL": 7,
            "POSITION": 6
          },
          "indices": 8,
          "material": 2,
          "mode": 4
        }
      ]
    },
    {
      "name": "Object_3",
      "primitives": [
        {
          "attributes": {
            "NORMAL": 10,
            "POSITION": 9
          },
          "indices": 11,
          "material": 3,
          "mode": 4
        }
      ]
    },
    {
      "name": "Object_4",
      "primitives": [
        {
          "attributes": {
            "NORMAL": 13,
            "POSITION": 12
          },
          "indices": 14,
          "material": 4,
          "mode": 4
        }
      ]
    },
    {
      "name": "Object_5",
      "primitives": [
        {
          "attributes": {
            "NORMAL": 16,
            "POSITION": 15
          },
          "indices": 17,
          "material": 5,
          "mode": 4
        }
      ]
    },
    {
      "name": "Object_6",
      "primitives": [
        {
          "attributes": {
            "NORMAL": 19,
            "POSITION": 18
          },
          "indices": 20,
          "material": 6,
          "mode": 4
        }
      ]
    }
  ],
  "nodes": [
    {
      "children": [
        1
      ],
      "matrix": [
        1.0,
        0.0,
        0.0,
        0.0,
        0.0,
        2.220446049250313e-16,
        -1.0,
        0.0,
        0.0,
        1.0,
        2.220446049250313e-16,
        0.0,
        0.0,
        0.0,
        0.0,
        1.0
      ],
      "name": "Sketchfab_model"
    },
    {
      "children": [
        2,
        3,
        4,
        5,
        6,
        7,
        8
      ],
      "name": "tinker.obj.cleaner.materialmerger.gles"
    },
    {
      "mesh": 0,
      "name": "Object_2"
    },
    {
      "mesh": 1,
      "name": "Object_3"
    },
    {
      "mesh": 2,
      "name": "Object_4"
    },
    {
      "mesh": 3,
      "name": "Object_5"
    },
    {
      "mesh": 4,
      "name": "Object_6"
    },
    {
      "mesh": 5,
      "name": "Object_7"
    },
    {
      "mesh": 6,
      "name": "Object_8"
    }
  ],
  "scene": 0,
  "scenes": [
    {
      "name": "Sketchfab_Scene",
      "nodes": [
        0
      ]
    }
  ]
}
